<svg width="60" height="60" viewBox="0 0 60 50" fill="none" xmlns="http://www.w3.org/2000/svg">
<path d="M27.8349 8.75C28.7972 7.08333 31.2028 7.08333 32.1651 8.75L49.4856 38.75C50.4478 40.4167 49.245 42.5 47.3205 42.5H12.6795C10.755 42.5 9.55218 40.4167 10.5144 38.75L27.8349 8.75Z" fill="#F8F8F8" stroke="#D9D9D9" stroke-width="5"/>
<path d="M30.2727 31.128C29.9687 31.128 29.7287 31.032 29.5527 30.84C29.3927 30.648 29.2967 30.376 29.2647 30.024L28.5447 20.856C28.4967 20.264 28.6247 19.792 28.9287 19.44C29.2327 19.072 29.6807 18.888 30.2727 18.888C30.8487 18.888 31.2807 19.072 31.5687 19.44C31.8727 19.792 32.0007 20.264 31.9527 20.856L31.2327 30.024C31.2167 30.376 31.1207 30.648 30.9447 30.84C30.7847 31.032 30.5607 31.128 30.2727 31.128ZM30.2727 36.12C29.7287 36.12 29.2887 35.952 28.9527 35.616C28.6327 35.28 28.4727 34.848 28.4727 34.32C28.4727 33.808 28.6327 33.392 28.9527 33.072C29.2887 32.736 29.7287 32.568 30.2727 32.568C30.8327 32.568 31.2647 32.736 31.5687 33.072C31.8887 33.392 32.0487 33.808 32.0487 34.32C32.0487 34.848 31.8887 35.28 31.5687 35.616C31.2647 35.952 30.8327 36.12 30.2727 36.12Z" fill="#888888" fill-opacity="0.5"/>
</svg>
